<svg id="visual" viewBox="0 0 960 300" width="960" height="300" xmlns="http://www.w3.org/2000/svg" xmlns:xlink="http://www.w3.org/1999/xlink" version="1.1"><rect x="0" y="0" width="960" height="300" fill="#a3ceef"></rect><path d="M0 171L10.7 167.5C21.3 164 42.7 157 64 154.8C85.3 152.7 106.7 155.3 128 162C149.3 168.7 170.7 179.3 192 186.5C213.3 193.7 234.7 197.3 256 193.7C277.3 190 298.7 179 320 172.2C341.3 165.3 362.7 162.7 384 168.2C405.3 173.7 426.7 187.3 448 191.2C469.3 195 490.7 189 512 180.8C533.3 172.7 554.7 162.3 576 167C597.3 171.7 618.7 191.3 640 200.5C661.3 209.7 682.7 208.3 704 209.5C725.3 210.7 746.7 214.3 768 209.7C789.3 205 810.7 192 832 184C853.3 176 874.7 173 896 168.8C917.3 164.7 938.7 159.3 949.3 156.7L960 154L960 301L949.3 301C938.7 301 917.3 301 896 301C874.7 301 853.3 301 832 301C810.7 301 789.3 301 768 301C746.7 301 725.3 301 704 301C682.7 301 661.3 301 640 301C618.7 301 597.3 301 576 301C554.7 301 533.3 301 512 301C490.7 301 469.3 301 448 301C426.7 301 405.3 301 384 301C362.7 301 341.3 301 320 301C298.7 301 277.3 301 256 301C234.7 301 213.3 301 192 301C170.7 301 149.3 301 128 301C106.7 301 85.3 301 64 301C42.7 301 21.3 301 10.7 301L0 301Z" fill="#5491ec"></path><path d="M0 187L10.7 189C21.3 191 42.7 195 64 198.5C85.3 202 106.7 205 128 209.8C149.3 214.7 170.7 221.3 192 226.2C213.3 231 234.7 234 256 236.8C277.3 239.7 298.7 242.3 320 234.2C341.3 226 362.7 207 384 200.2C405.3 193.3 426.7 198.7 448 199.3C469.3 200 490.7 196 512 202.2C533.3 208.3 554.7 224.7 576 228.7C597.3 232.7 618.7 224.3 640 222.2C661.3 220 682.7 224 704 224.5C725.3 225 746.7 222 768 217.5C789.3 213 810.7 207 832 210.8C853.3 214.7 874.7 228.3 896 230C917.3 231.7 938.7 221.3 949.3 216.2L960 211L960 301L949.3 301C938.7 301 917.3 301 896 301C874.7 301 853.3 301 832 301C810.7 301 789.3 301 768 301C746.7 301 725.3 301 704 301C682.7 301 661.3 301 640 301C618.7 301 597.3 301 576 301C554.7 301 533.3 301 512 301C490.7 301 469.3 301 448 301C426.7 301 405.3 301 384 301C362.7 301 341.3 301 320 301C298.7 301 277.3 301 256 301C234.7 301 213.3 301 192 301C170.7 301 149.3 301 128 301C106.7 301 85.3 301 64 301C42.7 301 21.3 301 10.7 301L0 301Z" fill="#498bee"></path><path d="M0 249L10.7 245.8C21.3 242.7 42.7 236.3 64 230.3C85.3 224.3 106.7 218.7 128 224.2C149.3 229.7 170.7 246.3 192 247.2C213.3 248 234.7 233 256 225.5C277.3 218 298.7 218 320 218C341.3 218 362.7 218 384 216.8C405.3 215.7 426.7 213.3 448 213.5C469.3 213.7 490.7 216.3 512 222.7C533.3 229 554.7 239 576 244C597.3 249 618.7 249 640 246.3C661.3 243.7 682.7 238.3 704 241.2C725.3 244 746.7 255 768 259.8C789.3 264.7 810.7 263.3 832 259.2C853.3 255 874.7 248 896 244.7C917.3 241.3 938.7 241.7 949.3 241.8L960 242L960 301L949.3 301C938.7 301 917.3 301 896 301C874.7 301 853.3 301 832 301C810.7 301 789.3 301 768 301C746.7 301 725.3 301 704 301C682.7 301 661.3 301 640 301C618.7 301 597.3 301 576 301C554.7 301 533.3 301 512 301C490.7 301 469.3 301 448 301C426.7 301 405.3 301 384 301C362.7 301 341.3 301 320 301C298.7 301 277.3 301 256 301C234.7 301 213.3 301 192 301C170.7 301 149.3 301 128 301C106.7 301 85.3 301 64 301C42.7 301 21.3 301 10.7 301L0 301Z" fill="#3d85f0"></path><path d="M0 256L10.7 260.3C21.3 264.7 42.7 273.3 64 273.2C85.3 273 106.7 264 128 261.2C149.3 258.3 170.7 261.7 192 265C213.3 268.3 234.7 271.7 256 270.2C277.3 268.7 298.7 262.3 320 258.7C341.3 255 362.7 254 384 251.7C405.3 249.3 426.7 245.7 448 245.7C469.3 245.7 490.7 249.3 512 251.7C533.3 254 554.7 255 576 258.3C597.3 261.7 618.7 267.3 640 268.3C661.3 269.3 682.7 265.7 704 264.7C725.3 263.7 746.7 265.3 768 262C789.3 258.7 810.7 250.3 832 253C853.3 255.7 874.7 269.3 896 274.5C917.3 279.7 938.7 276.3 949.3 274.7L960 273L960 301L949.3 301C938.7 301 917.3 301 896 301C874.7 301 853.3 301 832 301C810.7 301 789.3 301 768 301C746.7 301 725.3 301 704 301C682.7 301 661.3 301 640 301C618.7 301 597.3 301 576 301C554.7 301 533.3 301 512 301C490.7 301 469.3 301 448 301C426.7 301 405.3 301 384 301C362.7 301 341.3 301 320 301C298.7 301 277.3 301 256 301C234.7 301 213.3 301 192 301C170.7 301 149.3 301 128 301C106.7 301 85.3 301 64 301C42.7 301 21.3 301 10.7 301L0 301Z" fill="#327ef1"></path></svg>